<svg width="802" height="401" viewBox="0 0 802 401" fill="none" xmlns="http://www.w3.org/2000/svg">
<path d="M479.959 76.6265C487.2 72.1505 495.493 69.8417 504.914 69.8417H779.878V0H504.893C479.135 0 456.859 6.44648 437.931 19.12C439.757 20.9122 441.587 22.6953 443.367 24.5653C457.896 39.7783 470.234 57.3329 479.959 76.6265Z" fill="#FE5D16"/>
<path d="M764.934 184.873C741.435 162.577 712.067 151.427 676.831 151.424H504.917C492.81 151.424 479.962 148.827 471.411 141.782C463.409 135.189 454.775 113.253 454.775 113.253C446.301 90.8959 433.696 70.7173 417.758 53.9952C383.587 17.9984 339.45 0 285.348 0H183.353C129.604 0 85.5583 17.9984 51.2177 53.9952C28.9705 77.3123 14.0558 105.453 6.26158 138.312C4.49116 145.83 3.10264 153.451 2.10244 161.14C-0.700814 175.948 -0.700814 224.905 2.10244 239.709C3.10219 247.399 4.49072 255.022 6.26158 262.542C14.0558 295.396 28.9705 323.546 51.2177 346.858C85.5555 382.855 129.601 400.854 183.353 400.854H285.331C338.721 400.854 382.679 381.487 417.205 342.753C439.11 318.162 454.052 289.462 462.032 256.653C440.987 251.167 421.278 240.715 404.274 226.021C400.398 253.489 389.717 276.596 372.091 295.232C349.482 319.097 320.562 331.033 285.331 331.039H183.353C148.471 331.039 119.806 318.636 97.1263 294.07C90.3144 286.757 84.212 278.685 78.9175 269.985C59.6358 237.455 59.1783 188.837 60.6173 182.71C63.4206 170.755 66.2737 140.282 97.1304 106.815C119.81 82.2501 148.475 69.8463 183.358 69.8463H285.335C320.572 69.8463 349.492 82.1693 372.095 106.815C382.242 117.801 390.357 130.843 395.993 145.22C396.601 147.323 397.303 149.367 398.019 151.397C398.938 154.14 401.3 159.626 401.3 159.626C406.936 171.971 414.892 182.985 425.374 192.517C446.724 211.686 473.24 221.27 504.921 221.27H676.835C694.276 221.27 709.228 225.385 721.691 233.615C736.639 243.405 744.113 257.296 744.113 275.289C744.113 293.281 736.815 307.564 722.219 318.137C709.409 326.742 694.281 331.045 676.835 331.048H472.517C456.805 358.648 436.115 382.416 411.723 400.886H676.831C712.073 400.886 741.44 390.126 764.934 368.607C789.489 345.525 801.768 315.004 801.771 277.044C801.774 239.084 789.495 208.361 764.934 184.873Z" fill="#FE5D16"/>
</svg>
