<svg width="24" height="24" viewBox="0 0 24 24" fill="none" xmlns="http://www.w3.org/2000/svg">
<g id="Dollar Coin">
<path id="Vector" d="M14.5 9.08333L14.3563 8.96356C13.9968 8.66403 13.5438 8.5 13.0759 8.5H10.75C9.7835 8.5 9 9.2835 9 10.25C9 11.2165 9.7835 12 10.75 12H13.25C14.2165 12 15 12.7835 15 13.75C15 14.7165 14.2165 15.5 13.25 15.5H10.412C9.8913 15.5 9.39114 15.2969 9.01782 14.934L9 14.9167M12 8V7M12 17V16M21 12C21 16.9706 16.9706 21 12 21C7.02944 21 3 16.9706 3 12C3 7.02944 7.02944 3 12 3C16.9706 3 21 7.02944 21 12Z" stroke="#213170" stroke-width="1.5" stroke-linecap="round" stroke-linejoin="round"/>
</g>
</svg>
