<svg width="14" height="14" viewBox="0 0 14 14" fill="none" xmlns="http://www.w3.org/2000/svg">
<g id="remix-icons/line/business/pie-chart-line" clip-path="url(#clip0_19034_3318)">
<g id="Group">
<path id="Vector" d="M6.75 12.375C3.64331 12.375 1.125 9.85669 1.125 6.75C1.125 4.23112 2.78044 2.09925 5.0625 1.38262V2.57737C4.09552 2.97003 3.29501 3.68646 2.79791 4.60413C2.30081 5.5218 2.138 6.58367 2.33733 7.60812C2.53666 8.63257 3.08576 9.55592 3.89068 10.2202C4.6956 10.8846 5.70634 11.2486 6.75 11.25C7.6465 11.25 8.52258 10.9823 9.26597 10.4812C10.0094 9.98012 10.5862 9.26849 10.9226 8.4375H12.1174C11.4008 10.7196 9.26888 12.375 6.75 12.375ZM12.3469 7.3125H6.1875V1.15312C6.37256 1.13456 6.56044 1.125 6.75 1.125C9.85669 1.125 12.375 3.64331 12.375 6.75C12.375 6.93956 12.3654 7.12744 12.3469 7.3125ZM7.3125 2.28487V6.1875H11.2151C11.0899 5.19615 10.6385 4.27463 9.93193 3.56807C9.22537 2.86151 8.30385 2.41008 7.3125 2.28487Z" fill="white"/>
</g>
</g>
<defs>
<clipPath id="clip0_19034_3318">
<rect width="13.5" height="13.5" fill="white"/>
</clipPath>
</defs>
</svg>
