<svg width="140" height="6" viewBox="0 0 140 6" fill="none" xmlns="http://www.w3.org/2000/svg">
<g id="Underline thin marker brush">
<path id="Vector" d="M128.899 -3.25582C125.862 -3.39536 122.773 -3.53491 119.685 -3.67444C118.69 -3.72095 117.643 -3.72093 116.648 -3.76744C114.449 -3.81395 112.25 -3.86049 110.051 -3.907C108.847 -3.95351 107.59 -3.95349 106.386 -4C106.02 -4 105.653 -4 105.339 -4C104.554 -4 103.768 -4 102.931 -4C99.3183 -4 95.7057 -4 92.0932 -4C91.2555 -4 90.3655 -4.00001 89.5278 -3.9535C87.3812 -3.90699 85.287 -3.90698 83.1404 -3.86047C80.7321 -3.81396 78.3237 -3.81395 75.9154 -3.76744C72.0411 -3.67442 68.1144 -3.58141 64.2401 -3.48838C61.9888 -3.44187 59.7376 -3.39536 57.4863 -3.34885C53.612 -3.20932 49.7377 -3.06977 45.8634 -2.93024C43.7168 -2.83721 41.6226 -2.7907 39.476 -2.69768C35.4446 -2.51163 31.4656 -2.27908 27.4342 -2.09303C25.2877 -2.00001 23.1411 -1.90698 20.9945 -1.76744C17.0155 -1.48837 12.9841 -1.16279 9.00514 -0.837206C8.16745 -0.790694 7.27741 -0.697688 6.38736 -0.651176C4.65963 -0.511641 2.9319 -0.325577 1.20417 -0.139529C1.09946 -0.139529 0.994753 -0.0930293 0.890042 -0.0930293C0.680621 -0.0465174 0.523554 0.0465231 0.366488 0.186059C0.157066 0.372106 0 0.651165 0 0.930235C0 1.20931 0.104711 1.48837 0.366488 1.67441C0.57591 1.86046 0.942398 2 1.20417 2C3.29839 1.81395 5.34025 1.5814 7.43447 1.39535C9.37162 1.25582 11.3088 1.11627 13.2459 0.976736C15.3401 0.8372 17.4344 0.651154 19.5809 0.511618C20.4186 0.465106 21.2563 0.3721 22.1464 0.325588C25.4447 0.186053 28.6908 5.72205e-06 31.9892 -0.139529C34.031 -0.232553 36.0729 -0.325594 38.1148 -0.418617C38.9524 -0.465129 39.7901 -0.511635 40.6278 -0.558147C43.8739 -0.65117 47.1199 -0.790711 50.3659 -0.883735C52.3554 -0.930247 54.2926 -1.02325 56.2821 -1.06976C56.9627 -1.06976 57.591 -1.11629 58.2716 -1.11629C61.7794 -1.20932 65.2872 -1.25583 68.795 -1.34885C70.7322 -1.39536 72.7217 -1.44187 74.6589 -1.48838C75.3395 -1.48838 76.0724 -1.53488 76.7531 -1.53488C80.3656 -1.58139 83.9781 -1.5814 87.643 -1.62791C89.8943 -1.62791 92.1456 -1.67441 94.3969 -1.67441C98.2188 -1.67441 102.093 -1.67442 105.915 -1.62791C106.648 -1.62791 107.433 -1.58141 108.166 -1.58141C110.313 -1.5349 112.407 -1.48838 114.554 -1.39535C116.124 -1.34884 117.747 -1.30234 119.318 -1.25582C120.47 -1.20931 121.569 -1.16281 122.721 -1.11629C126.02 -0.976758 129.37 -0.790694 132.669 -0.604647C133.506 -0.558136 134.344 -0.511629 135.182 -0.465117C136.072 -0.418606 137.014 -0.372083 137.904 -0.279059C138.061 -0.279059 138.166 -0.23257 138.323 -0.186058C138.69 -0.139547 139.004 -0.139541 139.318 -0.325588C139.632 -0.465123 139.841 -0.744194 139.946 -1.02326C140.156 -1.62792 139.737 -2.27907 139.004 -2.46512C138.375 -2.60465 137.747 -2.65118 137.171 -2.74421C136.752 -2.79072 136.334 -2.83721 135.915 -2.83721C135.077 -2.93023 134.239 -2.93024 133.454 -3.02326C131.988 -3.11629 130.47 -3.1628 128.899 -3.25582Z" fill="#FD5D16"/>
</g>
</svg>
